<svg xmlns="http://www.w3.org/2000/svg" width="244.643" height="84.501" viewBox="0 0 244.643 84.501">
  <g id="Group_694" data-name="Group 694" transform="translate(13846.086 13725)">
    <g id="Group_656" data-name="Group 656" transform="translate(-13852.128 -13703.962)">
      <path id="Path_6340" data-name="Path 6340" d="M79.318,24.4V11.045h-8.3V17.7a1.715,1.715,0,0,0,0,1.944V24.4Zm-7.761-5.57c-.011-.408-.011-.408,0-.9l0-6.338h7.217V23.853H71.557V18.929C71.557,18.895,71.557,18.861,71.557,18.826Z" transform="translate(-2.582 -7.15)" fill="#91733f"/>
      <path id="Path_6341" data-name="Path 6341" d="M102.5,21.543v-10.5h-8.3V24.4h8.3v-.35h0l0-.071v-.016h0l0-.074v-.006A14.131,14.131,0,0,1,102.5,21.543Zm-7.76-9.954h7.217v10.7l.005.029a1.468,1.468,0,0,1,.018,1.539H94.736Z" transform="translate(-7.815 -7.15)" fill="#91733f"/>
      <path id="Path_6342" data-name="Path 6342" d="M192.441,13.424a4.356,4.356,0,0,1,0,1.733V24.4h1.725a2.216,2.216,0,0,0,.814.237.912.912,0,0,0,.1-.008h0l.018,0a4.327,4.327,0,0,0,.819-.228h.249a1.084,1.084,0,0,0,.695.237c.019,0,.039,0,.057,0l.025,0c.222-.019.367-.1.4-.231h.106a1.456,1.456,0,0,0,.6.237h0a1.116,1.116,0,0,0,.545-.237h2.141v-.35h0v-13h-8.3Zm.543,4.57V15.536l0-.021a2.7,2.7,0,0,1,0-2.063V11.589h.929l.023,0a2.743,2.743,0,0,1,.809-.052l-.054.056h5.51V23.853h-1.8a2.229,2.229,0,0,0-.894-.01l-.009.01h-.323c-.03-.037-.108-.054-.312-.054-.045,0-.092,0-.139,0h0a1.149,1.149,0,0,0-.35.051h-.659c-.284-.027-.469-.044-.625-.051h-.022c-.034,0-.067,0-.1,0v0a6.451,6.451,0,0,0-.686.054h-1.3v-5.86Z" transform="translate(-29.711 -7.15)" fill="#91733f"/>
      <path id="Path_6343" data-name="Path 6343" d="M203.833,18.15V24.4h8.3v-.35h0V11.4a.1.1,0,0,0,.02-.048.1.1,0,0,0-.02-.058v-.05l-.033.016,0,0-.119-.074V11.3a.458.458,0,0,1-.1,0h0a.29.29,0,0,1-.127-.044c-.014-.009-.023-.019-.023-.026s.005-.028.028-.056l.1-.127h-8.024v2.683a1.775,1.775,0,0,0,0,1.535V18.15Zm7.76-.156v5.86h-1.7c-.377-.035-.766-.054-1.128-.054l-.087,0a6.254,6.254,0,0,0-.835.051h-3.467v-.31a8.557,8.557,0,0,0,0-2.851c0-.022,0-.044,0-.066V15.431a2.4,2.4,0,0,0,0-1.5V12.265a.648.648,0,0,0,.141-.309c.067-.228.119-.394.231-.37l6.845,0Z" transform="translate(-32.211 -7.15)" fill="#91733f"/>
      <path id="Path_6344" data-name="Path 6344" d="M115.989,20.492H116l-.006,0h.034l-.116-.035-.007,0,.023,0-.3-.124h.01l-.354-.141-.024-.01h0l-.394-.154-.04-.016-.064-.025h0l-.094-.037.012.036-1.131,0-.025,0c-.248.083-.443.149-.6.193l-.023.006-.042.009h0a1.3,1.3,0,0,1-.284.047.735.735,0,0,1-.3-.06h0c-.107-.042-.234-.108-.395-.19l-3.409-.009v6.4h.683a4.725,4.725,0,0,0,1.424.237.893.893,0,0,0,.09-.006l.059-.005a5.343,5.343,0,0,0,1.327-.225h4.368V20.707l-.044-.021C116.225,20.606,116.1,20.544,115.989,20.492Zm-3.95,5.345h-.085c-.491-.036-.935-.054-1.358-.054h-.012c-.42,0-.845.018-1.291.054h-.27V20.522h2.634c.118-.006.231-.01.344-.013l.079,0h0c.232-.008.452-.013.657-.014.421,0,.766.007,1.014.03h.807l.088,0a1.9,1.9,0,0,1,.4-.012,1.449,1.449,0,0,1,.839.271v5.058Z" transform="translate(-10.999 -9.134)" fill="#91733f"/>
      <path id="Path_6345" data-name="Path 6345" d="M121.31,19.986h-.389l-.586,0a1.119,1.119,0,0,0-.444.2h0l-.005,0,0,0-.166.138h.028l-.037.036.03,0-.02.04h0l-.057.11h.023a1.923,1.923,0,0,0,.072.971c.112.456.227.928-.042,1.257l-.018.022V22.8c0,.031,0,.063,0,.1V26.39h8.05v-6.4H121.31Zm5.888,5.86h-6.963V23a10.476,10.476,0,0,0,.322-1.784c.027-.241.055-.468.092-.692l.272,0v0H127.2Z" transform="translate(-13.486 -9.143)" fill="#91733f"/>
      <path id="Path_6346" data-name="Path 6346" d="M173.656,26.622l.162,0c.067,0,.133,0,.2,0v0l.157,0,.038,0v0l.081-.005h0l.072,0v0l.052,0,.141-.015v0a3.965,3.965,0,0,0,.922-.193h.069v-.024l.347-.131h-.347v-.04h.394l-.394-.128v-6.08H167.5v6.209h0v.194h1.931a1.132,1.132,0,0,0,.608.237h0a4.179,4.179,0,0,0,1-.237h.866a7.416,7.416,0,0,0,1.747.232Zm-5.612-6.091h6.963v5.186c-.193.03-.3.045-.447.061h0l-.319.033-.054.005h0l-.016,0v0l-.1.01-.056,0h0l-.071.007-.151,0-.016-.014,0,0h-.013a.353.353,0,0,0-.107-.023c-.023,0-.056,0-.087-.005l-.045,0H173.5l-.059,0h0l-.1,0c-.041,0-.087,0-.133.007a.893.893,0,0,0-.241.045h-.049c-.03-.045-.113-.054-.28-.054l-.128,0a1.856,1.856,0,0,0-.408.051h-1.257l-.037,0c-.273-.023-.455-.038-.6-.045l-.046,0c-.053,0-.1,0-.142,0h-.013l-.072,0-.073,0-.068.006-.1.012-.034,0-.19.026h-1.423Z" transform="translate(-24.153 -9.143)" fill="#91733f"/>
      <path id="Path_6347" data-name="Path 6347" d="M164.7,13.63l-.514-.38s-.011,0-.016-.009h0a1,1,0,0,0-.579-.2l-.591,0,.253.069c-.027.01-.054.018-.081.03h0l-.023.012-.2.1.042.009a1,1,0,0,0-.41.8.932.932,0,0,0,.116.417h-.019l.077.12c.01.016.019.032.028.047s.016.021.023.032h-.035l.106.1,0,0a.217.217,0,0,0,.019.016.111.111,0,0,0-.04.1c.012.09.125.113.194.126v0h.009a3.6,3.6,0,0,0,.418.038l.121.007a1.166,1.166,0,0,0,.123-.006,1.819,1.819,0,0,0,.3-.019.4.4,0,0,0,.149-.069l.017,0,.018-.015h0l.2-.159-.074.006a2.155,2.155,0,0,0,.153-.344h0l.024-.066.023-.065.006-.016h0c.017-.048.033-.093.052-.148l.029-.078,0-.026a1.159,1.159,0,0,0-.008-.138h0a.679.679,0,0,0-.033-.1l.038.02-.1-.213,0,0-.009-.02-.005,0a.8.8,0,0,0-.057-.088Zm-1.076.53a1.575,1.575,0,0,0-.418.184l-.012-.016a.468.468,0,0,1-.082-.265.476.476,0,0,1,.87-.267.521.521,0,0,1,.04.075C164.066,13.991,163.941,14.054,163.627,14.16Z" transform="translate(-23.054 -7.596)" fill="#91733f"/>
      <rect id="Rectangle_1544" data-name="Rectangle 1544" width="3.345" height="0.544" transform="translate(127.169 -12.115)" fill="#91733f"/>
      <path id="Path_6348" data-name="Path 6348" d="M149.453-9.971c.479-.008.573-.02.573-.145v-.044l-.009-.005h0l-.171-.1-.067-.04-.019-.012h0l-.051-.03.036,0-.27-.132-.019-.009h-.009a.212.212,0,0,0-.068-.021h-2.7v.545h2.771Z" transform="translate(-19.513 -2.345)" fill="#91733f"/>
      <path id="Path_6349" data-name="Path 6349" d="M149.453-10.945c.147,0,.248-.006.326-.012a.15.15,0,0,0,.016.013l-.037.079.091-.055c.006,0,.01.008.017.008h0c.077,0,.117-.083.132-.114l.091-.193-.068.031v-.3l-.147.366-.016,0-.009-.017h0l-.058-.113-.022-.043h0a.31.31,0,0,0-.32-.194h-2.2c-.027-.047-.1-.051-.142-.053-.207-.013-.28.022-.305.053h-.128v.545h2.771Z" transform="translate(-19.513 -2.116)" fill="#91733f"/>
      <rect id="Rectangle_1545" data-name="Rectangle 1545" width="3.345" height="0.544" transform="translate(127.169 -14.349)" fill="#91733f"/>
      <path id="Path_6350" data-name="Path 6350" d="M196.568,2.442,176.2-8.955a.275.275,0,0,0-.265,0l-.337.189H157.935l-.06,0a10.116,10.116,0,0,0-3.873,0H133.128l-1.479-.828v-2.02a2.667,2.667,0,0,0,0-2.021v-1.17h.559v-.775l-.4-.459c.1-1.479.085-2.282-1.334-2.882-.026-.013-.051-.025-.079-.037a2.108,2.108,0,0,0-.242-.092,1.264,1.264,0,0,1-.716-.737.734.734,0,0,0,.2-.505.747.747,0,0,0-.746-.746.747.747,0,0,0-.746.746.74.74,0,0,0,.222.531,1.187,1.187,0,0,1-.176.316c-.019.024-.039.047-.059.069-.1.062-.194.122-.281.182l-.339.226.023,0a2.94,2.94,0,0,0-1.193,1.571l-.006-.1-.117.576,0,.011v0c-.036.179-.069.365-.1.567l-.043.243-.03.054a.536.536,0,0,1-.213.231l-.221.033v.981h.559v2.418l.047.02a.4.4,0,0,1,.24.247,1.4,1.4,0,0,0-.07.48l0,0v.017l.007.177-.034.131,0,.014,0,.011h0l-.01.041h-.173v1.666l-1.448.811H112.159a2.419,2.419,0,0,0-1.863,0h-6.433a5.777,5.777,0,0,0-2.918,0H91.051l-.074,0a3.971,3.971,0,0,0-2.432,0h-.612l-.059,0a6.365,6.365,0,0,0-3.094,0h-2.54L81.9-8.955a.276.276,0,0,0-.266,0L80.291-8.2l-.082.047a12.258,12.258,0,0,0-4.856,2.716L61.275,2.442a.269.269,0,0,0-.133.179.274.274,0,0,0,.044.218l.952,1.313a.273.273,0,0,0,.221.113.268.268,0,0,0,.134-.035L64.5,3.1h2.063V9.708c0,.04,0,.075,0,.1a5.041,5.041,0,0,0,0,1.623c0,.033,0,.068,0,.1v3.176c0,.065,0,.13,0,.194s0,.11,0,.163a1.593,1.593,0,0,0-.052.7.21.21,0,0,0,.051.12v2.178h0v.24a.163.163,0,0,0-.027.085.158.158,0,0,0,.028.081v.753a.139.139,0,0,0,0,.166v.846h-6.2l-.018.054c-.03.1-.227.159-.439.154-.182-.008-.321-.068-.339-.148l-.013-.061h-.433l.119.13a1.708,1.708,0,0,0,.916.322,2.063,2.063,0,0,1,.391.085l3.636.007-.22-.08a.851.851,0,0,1,.328.061l.023.019h2.244V20.8H81.708l.024,0a5.722,5.722,0,0,1,2.1,0h1.313l.044.007.022-.044a1.553,1.553,0,0,1,.916.024l.02.013h.141c.092,0,.123-.08.143-.178h.009l.01-.077v0l.011-.075h0c0-.04.009-.073.014-.129l.006-.084h-.5l-.015.06c-.011.046-.075.089-.173.114a.531.531,0,0,1-.42-.037.028.028,0,0,1,0-.033l.036-.1h-1.8l-.007.07c-.007.081-.21.144-.4.123-.13-.012-.225-.059-.22-.108l.007-.085h-.62l.158.137a.451.451,0,0,1,.039.038.421.421,0,0,1-.181.02.617.617,0,0,1-.42-.165l-.023-.03h-14.4a.1.1,0,0,0-.054-.017h-.374v-.654H81.353a.272.272,0,0,0,0-.544H67.109v-.375h6.373a.272.272,0,0,0,0-.544H67.109V15.943a1.552,1.552,0,0,0,0-1.613V3.1H96.153V19.039h-7.11a.272.272,0,0,0,0,.544h7.11v.671H95.119l-.032.007a3.646,3.646,0,0,1-1.269.238c-.25.012-.525.017-.84.017v.078h0v.078A14.285,14.285,0,0,1,95.3,20.8h23.73l.078-.017h2.934a35.888,35.888,0,0,1,4.863,0,.261.261,0,0,0,.1-.021l.252-.1-.27-.044a1.569,1.569,0,0,1-.955-.361l-.019-.013h-.371l-.026,0a7.465,7.465,0,0,1-3.485,0H119.1v-2.99h3.011a19.249,19.249,0,0,0,3.015.237,10.264,10.264,0,0,0,2.444-.236H138.5v2.99h-1.535a.272.272,0,0,0,0,.544H138.5V20.8h8.266l.106,0a7.094,7.094,0,0,1,2.336,0h30.443a16.281,16.281,0,0,1,3.5,0h1.916l.023,0a3.447,3.447,0,0,1,1.259-.062l-.149.049h.441l.059.015,4.222,0,.078-.017h4.162V20.8l.047-.019a.3.3,0,0,0,.046-.006l.064-.021,0-.026a.085.085,0,0,0-.012-.152c-.014-.232-.026-.336-.124-.336h-4.181a9.532,9.532,0,0,1,0-1.11V13.045c-.019-.2-.019-.783-.009-.944l.009-.11-.006-.759c0-.028,0-.054,0-.082-.012-.595-.013-1.219,0-1.805l0-.128c-.016-1.109-.013-1.886.007-2.868V3.1h2.345l.294.166.091.052.037.022.038-.02a.537.537,0,0,1,.236-.063.354.354,0,0,1,.2.05l-.2-.043.317.182h-.005l.092.051.015.019a3.137,3.137,0,0,1,.238.427c.133.271.239.486.414.5h.011a.375.375,0,0,0,.274-.188.281.281,0,0,0,.316-.1l.952-1.313a.278.278,0,0,0,.045-.218A.274.274,0,0,0,196.568,2.442ZM147.039,20.254h-1.476a.1.1,0,0,0-.054-.017h-2.934V16.9h0v-.854a3.8,3.8,0,0,0,.162-.856v0h0c0-.017,0-.033,0-.051l0-.021h0a2.3,2.3,0,0,0-.157-.575V10h18.288v10.25H149.107l-.02,0A2.794,2.794,0,0,1,147.039,20.254ZM126.618-16.069c-.152-1.482.755-2.22,1.773-2.807.034-.029.065-.059.1-.09a1.73,1.73,0,0,0,.417-.7,1.756,1.756,0,0,0,.755.961,2.085,2.085,0,0,0,.306.162c1,.19.941.728.883,1.3-.044.428-.088.87.335,1.133,0,.023.007.043.011.063a.686.686,0,0,0,.058.176,1.2,1.2,0,0,0,.412.492v.029h-5.518v-.029a1.2,1.2,0,0,0,.413-.491.717.717,0,0,0,.033-.083.957.957,0,0,0,.024-.093l0-.012Zm-11.59,36.323H96.74V10h18.288v10.25ZM126.7-12.263l.007-.009h0v-2.533h4.4V-13.6a4.134,4.134,0,0,0,0,1.779v.577h-4.047c-.061-.092-.314-.082-.431-.057a.289.289,0,0,1-.076-.169,2.769,2.769,0,0,0,.072-.34A.654.654,0,0,0,126.7-12.263Zm34.708,31.8a.264.264,0,0,0,.145.048h6.515a.872.872,0,0,0,.594.232.521.521,0,0,0,.116-.012.182.182,0,0,0,.153-.126.191.191,0,0,0-.043-.156c.157-.218.235-.329.179-.428-.068-.12-.256-.108-.97-.054h-6.545a.27.27,0,0,0-.145.047V16.9h0V3.1h1.562L163,3.09a1.209,1.209,0,0,1,1.375,0l.909.006.009-.068c.008-.065.082-.1.141-.122a.932.932,0,0,1,.829.166l.023.024h24.166V17.93a.265.265,0,0,0-.142-.047H176.976l-.02.049c-.04.1-.2.169-.406.176a.538.538,0,0,1-.5-.181l-.021-.044h-.109a.272.272,0,1,0,0,.545h.082l.018-.011a3.68,3.68,0,0,1,1.068-.051l.12,0a10.111,10.111,0,0,1,1.24.065h10.179a4.617,4.617,0,0,1,1.557,0h.118a.259.259,0,0,0,.142-.047v1.855h-3.822a.1.1,0,0,0-.052.017H161.406ZM96.7,4.01h3.965l.39.221a.28.28,0,0,0,.132.033.253.253,0,0,0,.04-.009l.037-.009a.266.266,0,0,0,.144-.094l.1-.142h2.515l.684.945a.268.268,0,0,0,.145.1l.037.009a.314.314,0,0,0,.039.009.272.272,0,0,0,.135-.037l.509-.287V7.633h-1.786a5.376,5.376,0,0,0-3.218,0H96.7Zm0-.914h2.345l.657.37h-3ZM84.667-8.222h.1a12.086,12.086,0,0,0,3.2,0l.375,0a8.247,8.247,0,0,0,2.645,0h9.741l.087,0a10.859,10.859,0,0,0,3.028,0h6.186l.083,0a4.963,4.963,0,0,0,2.044,0h11.589L112.976-2.2l-.079.044c-.225.072-.429.165-.638.253-.114.048-.238.086-.349.138-.174.082-.336.179-.5.269-.134.073-.274.139-.4.217-.191.114-.375.239-.561.362-.1.065-.2.124-.3.191-.281.193-.561.393-.844.6-.542.388-1.1.789-1.7,1.156h0c-.168.081-.327.162-.48.246s-.3.172-.448.262a10.267,10.267,0,0,1-1.455.608l-1.544.863a.274.274,0,0,0-.088.4l.044.061H101.9l.27-.373a.324.324,0,0,0,.04-.162c0-.02-.008-.044-.01-.066a.612.612,0,0,0-.014-.094h.006l-.007-.016a.08.08,0,0,0,.053-.066c0-.021,0-.071-.075-.095l-.053-.017,0,0h0c-.01-.019-.025-.04-.037-.061s-.026-.045-.041-.069-.045-.068-.07-.1-.033-.047-.05-.069-.051-.059-.075-.086-.029-.033-.042-.046a.187.187,0,0,0-.09-.057l-.051,0,0,.006L89.175-4.886h7.17l-.053-.058a1.793,1.793,0,0,1,.508.02l0,.037h.068a.267.267,0,0,0,.193-.08l.1-.1L97.027-5.1c-.03-.006-.084-.012-.152-.018-.178-.016-.549-.051-.626-.162a.058.058,0,0,1-.008-.055l.026-.1H88.326a.171.171,0,0,0-.082.023l-.2-.113-.891-.5h5.668a.272.272,0,0,0,.271-.272.272.272,0,0,0-.271-.273h-6.64l-.451-.252-.45-.252H98.892a.272.272,0,0,0,.272-.272.272.272,0,0,0-.272-.272H84.347a.107.107,0,0,0-.033.005l-.78-.437-.321-.18ZM165.76-.833l1.056-.6V1.728h-1.49V-.588ZM184.5-1.894l.281.159V-.173a3.525,3.525,0,0,0-.11.379,4.053,4.053,0,0,0-.171-.574V-1.894Zm.165,2.552c.02.154.057.347.116.636v.434H184.5V1.305C184.583,1.015,184.635.82,184.665.658Zm2.972-.782v.7l.044-.029a2.561,2.561,0,0,1-.037.744l0,.433h-.282V1.655l-.009-.038c-.254-.46-.254-.46.006-1.352l0-.547Zm2.858,1.852h-.281v-.4h0l.281.158Zm-.824-.7v.7h-1.49V.184l.744.42ZM186.814-.588V.34c0,.031,0,.063,0,.094l0,.118.067-.026a1.957,1.957,0,0,1-.057.88l-.006.322h-1.49V-1.429l.745.42ZM183.957-2.2V-.172a3.62,3.62,0,0,0-.094.466v0c0,.04-.006.079-.006.121,0,.011,0,.023,0,.033,0,.033,0,.067.005.1s.007.065.011.1,0,.043.008.068.01.069.016.1c.016.1.034.218.059.367v.536h-1.49V.363h0c-.014-.251-.023-.417-.027-.568,0-.075,0-.149,0-.225,0-.228.01-.5.031-1.036V-3.041l1.118.63Zm-2.033,3.928h-.281V-3.507h0l.281.159Zm-3.681-7.154V1.728h-1.49v-8l1.118.63ZM176.21,1.728h-.28V-2.353a1.55,1.55,0,0,0,0-1.55V-6.574l.141-.079.139.079Zm-.823-8v2c-.018.122-.028.243-.04.365-.007.071-.018.141-.023.212-.013.189-.02.375-.02.558v.009a6.09,6.09,0,0,0,.084,1.044V1.728H173.9V1.144c-.01-.378-.016-.761-.016-1.155s.005-.8.016-1.219v-4.2l.433-.245Zm-2.034,1.148V-.6l.033.023a.666.666,0,0,1,.239.511.959.959,0,0,1-.248.747L173.353.7V1.728h-.281V-4.961l.281-.159Zm-.824.466V1.728H171.04V.455c0-.03,0-.059,0-.089l0-.026a5.8,5.8,0,0,1,0-3.025l0-1.13.744-.42ZM170.5-3.506v.983l0,.016a12,12,0,0,1,0,2.865v1.37h-.281V-3.348l.281-.159Zm-.825.465V1.728h-1.49V-2.2l.745-.42ZM167.64-1.893V1.728h-.28V-1.736l.28-.158ZM163.959.185V1.728H162.47v-.7L162.9.783Zm-2.033,1.147v.4h-.281V1.489l.281-.158ZM181.1-3.814V1.728h-1.226l-.162.006.07.082a.879.879,0,0,1-.092.012h-.079V-4.654l1.121.633Zm-2.032,5.542h-.281V-5.12l.281.159ZM164.783-.281V1.728H164.5V-.122l.281-.159ZM124.853,16.7h-.44a10.4,10.4,0,0,0-2.124,0H119.1V15.069a3.405,3.405,0,0,0,.281-1.5,4.52,4.52,0,0,0-.281-1.648v-.538H138.5v.848l.006.031a3.458,3.458,0,0,1,.178,1.126c0,.044,0,.088,0,.132l0,.022.018.022a2.835,2.835,0,0,1-.071,1.119l0,.02c0,.022-.005.045-.009.068a6.346,6.346,0,0,1-.116.652v.009l0,.009V16.7H127.37A14.659,14.659,0,0,0,124.853,16.7ZM116.59,6.467a.476.476,0,1,1,.678.425.431.431,0,0,1-.406,0A.47.47,0,0,1,116.59,6.467Zm.766.961h.007l.012,0,.466-.152h-.2c.021-.015.049-.023.068-.039h.014l.023-.02h0l.147-.134h-.042c.009-.013.021-.025.03-.039h0L117.912,7l.076-.12h-.019a.941.941,0,0,0,.115-.417,1,1,0,0,0-.4-.791l.039-.008-.192-.1-.026-.012h0c-.026-.012-.054-.022-.082-.032l.136-.041-.438-.029a.161.161,0,0,0-.047-.008,1.006,1.006,0,0,0-.712.3l0,0-.019.015L116,6.114l.186-.1a1.047,1.047,0,0,0-.057.1l-.01.007-.009.024v0l-.074.222.024-.017a.734.734,0,0,0-.013.112.939.939,0,0,0,.117.417h-.019l.077.12.023.036h.005c.009.015.021.026.03.04h-.043l.148.134h0l.022.02h.014c.019.016.047.024.068.039h-.2l.465.152c.015.005.031,0,.046.009a4.971,4.971,0,0,0-.509.2h-.722V5.756l1.494-.894.668.4.023.013.231.138.327.2h0l.247.147V7.633h-.638a5.81,5.81,0,0,0-.573-.2Zm43.507,1.94v.092H142.575V8.177h11.359c.605.03,1.1.045,1.677.045s1.227-.016,2.136-.046h3.116V9.369Zm-20.13-1.736h-1.691V5.757l.249-.149h0l.517-.309h0l.046-.027h0l.684-.409,1.494.894V7.633h-1.3ZM119.1,8.177V5.614a4.522,4.522,0,0,1,2.355.742V7.684l.005.03a3.591,3.591,0,0,1-.005,2.014v1.116H119.1Zm-.647-3.117h0l-.406-.243h.51v.3l-.1-.061Zm-12.343-.622,1.034-.584h0l.069-.039h.027V3.8l.19-.107h0V7.633h-1.32Zm33.034.62h0l-.063.037-.044.026h0v-.3h.511Zm2.883-.242v.305h0l-.51-.305Zm9.7,2.816h-1.321V3.694h0l.218.123h0l.069.039h0l.219.124V4.01h.057l.1.056h0l.661.373ZM107.978,4.01h14.616l.057.013.007,0c.089.047.164.086.233.12l.055.026a.825.825,0,0,0,.342.093c.009,0,.019-.007.028-.007a.82.82,0,0,0,.264-.058c.119.017.225.013.34.024.182.016.368.04.542.04h.076c.157,0,.321-.011.494-.026.039,0,.082-.011.122-.015.134-.015.268-.029.414-.052a.923.923,0,0,0,.177.063l.014,0a.956.956,0,0,0,.214.025l.012,0c.006,0,.011,0,.017,0a.694.694,0,0,0,.318-.071.347.347,0,0,0,.111-.1.324.324,0,0,0,.02-.036.236.236,0,0,0,.027-.047h1.41s0,.007.006.012a.284.284,0,0,0,.061.108.6.6,0,0,0,.427.137,1.138,1.138,0,0,0,.179-.015c.023,0,.047-.011.069-.016a1.059,1.059,0,0,0,.126-.03.731.731,0,0,0,.077-.032.971.971,0,0,0,.117-.051.777.777,0,0,0,.074-.051.818.818,0,0,0,.093-.063h.31a.3.3,0,0,0,.019.035.313.313,0,0,0,.026.044.345.345,0,0,0,.063.063.354.354,0,0,0,.043.031.538.538,0,0,0,.1.044.481.481,0,0,0,.051.017.861.861,0,0,0,.2.023h0a1.138,1.138,0,0,0,.179-.015c.023,0,.046-.011.068-.016a1.257,1.257,0,0,0,.124-.03c.026-.009.052-.022.079-.033a1.034,1.034,0,0,0,.113-.05c.026-.014.048-.034.072-.051a.812.812,0,0,0,.09-.063h1.465a.848.848,0,0,0,.122.06c.032.014.058.032.092.044.053.019.112.033.169.047.036.009.068.02.1.027.072.015.146.025.22.034l.072.011.033,0c.091.009.176.016.247.019l.052,0c.067,0,.134.008.2.008h0c.149,0,.3-.006.447-.018.054,0,.106-.013.159-.019.093-.01.187-.019.277-.033.051-.008.1-.02.146-.03.087-.016.176-.032.257-.052.037-.009.069-.022.1-.032.083-.023.167-.046.241-.074h14.788V7.633h-7.289V4.273h-1.962l-.075-.045-.075.045H138.5v.8h0c-.113.007-.208.024-.313.037s-.212.019-.308.035c-.111.019-.207.044-.308.066-.083.019-.172.034-.248.055-.1.027-.18.058-.266.089-.064.022-.135.042-.193.065-.083.033-.152.068-.225.1-.047.022-.1.044-.143.066-.068.036-.123.069-.18.1-.033.02-.073.041-.1.06-.058.037-.1.07-.143.1l-.055.04a1.432,1.432,0,0,0-.168.152l-.069.078v4.721h-3.562v-.491l-.008-.033a4.7,4.7,0,0,1,0-2.864l.005-1.347-.085-.08a4.772,4.772,0,0,0-3.224-.981,4.116,4.116,0,0,0-3.085,1l-.069.078V7.783l0,.076a4.583,4.583,0,0,0,0,2.429v.554H122v-.99l0-.016a4.315,4.315,0,0,1,0-2.214l0-1.515-.085-.081s-.044-.037-.1-.083c-.023-.018-.041-.033-.074-.055s-.062-.04-.092-.059-.078-.052-.128-.082-.093-.049-.139-.074-.1-.059-.169-.09-.127-.054-.191-.081-.131-.059-.207-.087-.159-.051-.238-.076-.16-.054-.251-.078-.187-.04-.281-.061-.193-.044-.3-.061-.216-.024-.325-.036-.2-.028-.315-.034h0v-.8h-1.963l-.075-.045-.075.045h-1.962V7.626l-7.05.007ZM126.3,10.142a4.185,4.185,0,0,0,0-2.1v-1.7a3.993,3.993,0,0,1,2.61-.751,4.637,4.637,0,0,1,2.766.765V7.52a14.56,14.56,0,0,1,0,2.682v.641H126.3ZM115.571,4.817h.51l-.51.3Zm34.292-1.351H134.912a1.114,1.114,0,0,0-.4-.036h-.068c-.106,0-.225.005-.337.012h-.022l-.018,0c-.07.005-.135.012-.186.019h-.009l-.186,0a4.62,4.62,0,0,0-.65-.037H133a4.258,4.258,0,0,0-.647.036H130.42a2.921,2.921,0,0,0-.49-.036.659.659,0,0,0-.312.036h-.729a2.858,2.858,0,0,0-.507-.036h-.027c-.159,0-.242,0-.281.035h-1.784a.69.69,0,0,0-.32-.036h-.041a2.307,2.307,0,0,0-.437.035l-.379,0a4.164,4.164,0,0,0-.6-.037c-.185,0-.274,0-.312.036h-.3c-.3-.023-.458-.036-.612-.036h-.019c-.144,0-.3.013-.565.035H107.978v-.08l1.281-.723h39.324l1.281.723ZM144.818.538l.985.556V2.12h-1.971V-.017ZM110.252,2.1l.224-.126V2.12h-.253Zm16.536-9.334,1.353-.763V2.12H126.17V.646a5.173,5.173,0,0,0,0-3.063V-6.883Zm20.753,9.307.078.044h-.253V1.977ZM128.887-8.417l.033-.019.031.018,0,0h0l.068.039h0l.137.077v1.982l0,.106a8.3,8.3,0,0,1,0,3.624c0,.033,0,.066,0,.1V2.12h-.475V-8.3l.2-.115Zm2.786,1.534v9H129.7V-2.4c-.016-.234-.029-.451-.04-.654-.034-.609-.051-1.1-.051-1.546,0-.6.03-1.135.092-1.813V-7.995l.985.556Zm15.149,9h-.476V1.4h0l.476.268Zm-3.533,0h-.475V-.592h0l.475.268ZM142.271-.9V2.12H140.3V-2.012l.985.556ZM139.757,2.12h-.475V-2.587h0l.475.269Zm-1.019-5.013V2.12h-1.971V-4.006l.985.556ZM136.224,2.12h-.475v-6.7h0l.475.268Zm-1.018-7.007V2.12h-1.972V-6l.986.556ZM132.691,2.12h-.475v-8.7h0l.475.268Zm-7.066-8.7V-2.2a14.4,14.4,0,0,0,0,2.741V2.12h-.476V-6.307l.476-.268ZM124.607-6V2.12h-1.97V.551c-.026-.47-.038-.9-.038-1.343s.012-.9.038-1.424V-4.888l.579-.326Zm-2.513,1.419v6.7h-.476V-4.313l.476-.268Zm-1.02.575V2.12H119.1V-2.894l.579-.326Zm-3.533,1.994V2.12h-1.97V-.9l.579-.327Zm-2.513,1.42V2.12h-.476V-.324l.476-.269Zm-1.02.575V2.12h-1.97V1.095l.579-.327ZM111.495,1.4V2.12h-.476V1.67l.476-.268Zm7.066-3.989V2.12h-.476V-2.318l.476-.269ZM138.5,8.177v2.666h-2.177v-4.5a3.823,3.823,0,0,1,2.177-.728V8.177ZM157.181,4.01h3.682V7.633h-3.076a7,7,0,0,0-3.667,0h-1.848V4.746l.508.287a.268.268,0,0,0,.134.035.216.216,0,0,0,.043-.011l.03-.007a.265.265,0,0,0,.148-.095l.685-.945h2.515l.1.142a.26.26,0,0,0,.143.094,448.4,448.4,0,0,1,.078.019.274.274,0,0,0,.133-.035l.238-.134ZM158.8,3.1h2.063v.37h-2.719l.329-.185ZM68.6.78l1.057-.6V1.728h-1.49v-.7ZM86.057-4.234l.744.42V1.728h-1.49V-4.654Zm9.315,5.259v.7h-1.49V.185l.744.42ZM92.516-.588V1.728h-1.49V-1.429l.744.42ZM90.483,1.728H90.2V-1.893h0l.281.159ZM89.658-2.2V1.728h-1.49V-3.041l.745.42ZM87.625-3.348V1.728h-.28V-3.507l.28.159Zm-3.68-2.077V1.728h-1.49V-.539l-.007-.032a5.015,5.015,0,0,1-.18-2.042,7.776,7.776,0,0,1,.185-1.246v-.01l0-.008v-2.39l.744.42Zm-2.034,4.7V1.728h-.281v-8.3l.141-.079.14.079v2.9A13.469,13.469,0,0,1,81.912-.726Zm-.824-5.541v8H79.6V.359c0-.024,0-.047,0-.071a5.618,5.618,0,0,0,0-2.84V-5.426l.428-.242ZM78.231-4.654V1.728h-1.49V1.043c0-.713,0-1.267,0-1.846s0-1.183,0-2h0V-3.814l.745-.42ZM75.375-3.041V1.728h-1.49V-2.2l.434-.245ZM72.519-1.429V1.728h-1.49V-.588l.744-.42ZM96.2,1.728h-.28v-.4h0l.28.159ZM93.34-.122v1.85h-.281V-.281h0l.281.159Zm-8.571,1.85h-.28V-5.119h0l.28.159ZM79.056-5.119v2.767a8.862,8.862,0,0,0,0,2.774V1.728h-.281V.482a.472.472,0,0,0,.218-.437.591.591,0,0,0-.218-.553V-4.961l.281-.159ZM76.2-3.506v.894l0,.019A5.317,5.317,0,0,1,76.2.83l0,.023c0,.026,0,.05,0,.077v.8h-.28V-3.348l.28-.159ZM73.342-1.893V1.728h-.28V-1.736l.28-.158ZM70.485-.281V1.728H70.2V-.123l.281-.159ZM67.628,1.728h-.281V1.49l.281-.159ZM96.74,8.177h3.683a32.441,32.441,0,0,0,3.441,0h11.164V9.461H96.74V8.177Zm29.965-18.842v-.007a1.214,1.214,0,0,0,.228-.026h1.23l-1.459.817Zm.092,1.356,2.124-1.189,1.909,1.069h0l.626.35h0l.051.028.508.285h0l.619.345.077.044h0l.02.011.257.145h0l10.752,6.017.822.46a24.679,24.679,0,0,0,3.351,1.9l.145.071a11.047,11.047,0,0,0,2.23,1.2l.03.018c.17.1.346.211.513.323l2.613,1.463a2.977,2.977,0,0,1,.028.318v.026l-.068.092h0l-.055.075-.058.08h0l-.141.194h0l-.311.429-.72-.406h0l-.194-.11h0l-.194-.11h0l-.182-.1-.089-.051h0l-.344-.194h0l-.045-.026h0l-.08-.045-.075-.043h0l-.194-.11h0l-.012-.007-.072-.04h0l-.032-.018-.079-.045h0l-.117-.066-.047-.026h0l-.344-.194h0l-.463-.261-.129-.073-.009,0h0l-.068-.039h0l-.18-.1-.1-.054h0l-.344-.194h0l-1.515-.856h0l-.194-.11h0l-.194-.11h0l-.63-.356h0L146,.579h0L145.8.47h0l-2.125-1.2h0l-.04-.023h0L143.6-.777l-.111-.064h0L143.4-.889l-.737-.417h0l-.194-.11h0l-.194-.11h0l-2.125-1.2h0l-.194-.11h0l-.194-.11h0l-.63-.356h0l-.194-.11h0l-.194-.11h0l-2.125-1.2h0l-.194-.11h0l-.194-.11h0l-.629-.356h0L135.4-5.4h0l-.194-.11h0l-2.126-1.2h0l-.194-.11h0l-.194-.11h0l-.629-.356h0l-.194-.11h0l-.194-.11h0l-1.4-.789-.137-.077-.009,0h0l-.068-.039h0l-.514-.291h0l-.048-.027h0l-.022-.012-.124-.07h0l-.194-.11h0l-.1-.059a.277.277,0,0,0-.267,0l-.1.059h0l-.292.166h0l-.012.007-.058.033-.026.015h0l-.515.291h0l-.068.039h0l-1.542.87h0l-.194.11h0l-.194.11h0l-.631.356h0l-.091.052L125-6.845h0l-.084.048-.15.084h0l-2.125,1.2h0l-.194.11h0l-.194.11h0l-.631.356h0l-.079.045-.075.043h0l-.084.047-.15.085h0l-2.125,1.2h0l-.194.11h0l-.194.11h0l-.724.409-.1.057h0l-.111.063-.044.025h0l-.04.023h0l-2.125,1.2h0l-.194.11h0l-.194.11h0l-.631.356h0l-.194.11h0l-.194.11h0L112.038.47h0l-.194.11h0l-.194.11h0l-.63.356h0l-.194.11h0l-.194.11h0l-1.516.856h0l-.344.194h0l-.1.054-.18.1h0l-.068.039h0l-.6.339h0l-.343.194h0l-.044.024h0l-.129.073-.073.041V3.172l-.093.061,0,0h-.048v.027l-.04.023h0l-.152.086,0,0h0l-.166.094h0l-.343.194h0l-.09.051-.181.1h0l-.194.11h0l-.194.11h0l-.72.406-.311-.429h0l-.141-.194h0l-.141-.194h0l-.209-.288,1.319-.737.1-.062A6.5,6.5,0,0,1,106.266,2c1.043-.529,1.886-.968,2.651-1.377l.42-.166a10.483,10.483,0,0,0,3.644-2.037l11.876-6.646h0l.111-.062.167-.093h0l.069-.039h0l.627-.35h0l.333-.187h0l.194-.108h0ZM65.961,2.273H97.583l.5.279H96.7V2.469H66.565v.082h-1.1ZM131.106-9.9l-1.414-.791h.03L129.7-10.7h1.4v.8Zm7.936,26.99v-.039h0V16.9h0V15.439c-.025-.19-.045-.4-.062-.64,0-.024,0-.048-.006-.082a5.411,5.411,0,0,1-.044-1.131l.011-.019v-.023c0-.046,0-.09,0-.135a3.99,3.99,0,0,1,.1-.951l0-1.07h0V8.177h2.99v5.855a7.8,7.8,0,0,0-.13,1.106h0v0a7.1,7.1,0,0,0,.129,1.09v.819h0v3.185h-2.99v-1.3h2.319a.272.272,0,0,0,0-.544h-2.319V17.091ZM166.134,2.552l-.019.014a1.555,1.555,0,0,1-.543.052l.109-.066h-1.4l-.091,0a2.265,2.265,0,0,1-1.1,0h-3.328l.5-.279h31.621l.5.279H166.134ZM61.952,3.3a3.27,3.27,0,0,1-.107-.466l-.038-.064,13.57-7.594.07-.04a23.329,23.329,0,0,0,5.161-2.887l1.163-.652.05.028h0l.26.145.018.01h0L97.281.274,101.613,2.7l.041.023a.9.9,0,0,1,.021.131l-.445.614h0l-.085.117-.038.054-.3-.17h0l-1.226-.693h0l-.194-.11h0l-.2-.112h0L98.561,2.2l-.138-.078-.009-.005h0l-.068-.038h0l-.18-.1-.1-.054h0l-.344-.194h0l-1.142-.644h0L96.39.974h0L96.2.865h0l-.28-.159h0L95.9.7,95.761.619h0L95.567.51h0L95.373.4h0L93.728-.529h0l-.194-.11h0l-.194-.11h0L92.9-.993h0l-.04-.023h0l-.086-.049L92.71-1.1h0l-.194-.11h0l-1.644-.929h0l-.194-.11h0l-.194-.11h0l-.436-.246h0l-.194-.11h0l-.194-.11h0l-1.644-.928h0l-.039-.022h0L87.93-3.8l-.11-.061h0l-.19-.107-.284-.161h0L87.33-4.14l-.14-.079h0L87-4.329h0l-.194-.11h0l-1.644-.928h0l-.194-.11h0l-.194-.11h0l-.28-.159h0l-.016-.009-.139-.079h0l-.194-.11h0l-.194-.11h0L82.3-6.98h0l-.194-.11h0l-.194-.11h0l-.006,0a.273.273,0,0,0-.267,0l-.007,0h0l-.194.11h0l-.194.11h0L79.6-6.051h0l-.194.11h0l-.34.192-.291.163h0l-.1.059-.05.029h0l-.082.047-.152.085h0l-1.644.929h0l-.194.11h0l-.194.11h0l-.14.079-.015.009h0l-.28.159h0l-.194.11h0l-.194.11h0l-1.645.928h0l-.194.11h0l-.194.11h0l-.434.246h0l-.077.044-.078.044h0l-.083.047-.151.085h0l-1.644.929h0l-.194.11h0l-.34.192L70.2-.748h0l-.194.11h0l-.194.11h0L68.171.4h0l-.134.076-.021.012h0l-.085.048-.149.084h0L67.633.7l0,0h0l-.285.162-.19.106h0l-.111.063L67,1.061h0l-.04.023h0l-1.141.644h0l-.344.194h0l-.095.054-.18.1h0l-.068.038h0l-.771.435h0l-.059.033-.041.023h0l-.1.058-.073.041h0l-.019.011h0l-1.627.919-.05-.068-.025-.008a1.213,1.213,0,0,1-.306-.119Zm56.609,15.649v1.29h-.2a.1.1,0,0,0-.054.017h-2.732V18.947Zm0-1.7V18.4h-2.99V8.177h.724c.387.03.58.046.794.046s.449-.016.92-.045h.551v4.251c-.016.394-.016,1.946,0,2.721v2.1ZM128.9-20.064l-.1-.047a.2.2,0,0,1-.114-.18.2.2,0,0,1,.2-.2.2.2,0,0,1,.2.2.2.2,0,0,1-.1.173ZM155.886,2.48a.21.21,0,0,0-.038-.031l0,0h0a.274.274,0,0,0-.3.012.267.267,0,0,0-.109.177.263.263,0,0,0,.011.123s0,.008,0,.012h-.012c-.141,0-.3-.005-.45-.008-.1,0-.2,0-.305,0h-.051c-.282,0-.577,0-.887.013l-2.531-1.417A20,20,0,0,1,148.45-.335a10.582,10.582,0,0,0-3.792-1.979l-4.6-2.572h2.1l.112,0a14.053,14.053,0,0,1,2.718,0,.3.3,0,0,0,.106-.022.271.271,0,0,0,.166-.251A.272.272,0,0,0,145-5.43h-5.466a.244.244,0,0,0-.146.054.247.247,0,0,0-.032.032.242.242,0,0,0-.035.034l-.016-.01,0,.008-3.135-1.755h7.8a.272.272,0,0,0,.272-.272.272.272,0,0,0-.272-.272h-8.545a.259.259,0,0,0-.132.041c-.005,0-.012,0-.017.005L134.1-8.222h19.812a19.937,19.937,0,0,0,4.1,0h16.614l-1.105.616a.1.1,0,0,0-.033-.005h-8.545a.272.272,0,0,0-.271.272.254.254,0,0,0,.023.108l.026.058.062-.015a9.327,9.327,0,0,1,3.053.12h4.719L159.56.178l-.05.028c-.061.013-.134.024-.218.037l-.211.034-.008,0c-.073.012-.151.028-.232.046l-.035.009c-.072.017-.145.036-.22.06-.023.007-.045.017-.068.025-.064.023-.127.044-.19.072-.026.012-.05.027-.075.04a1.581,1.581,0,0,0-.175.094c-.026.017-.05.04-.075.058a1.594,1.594,0,0,0-.152.119c-.025.024-.044.054-.068.08a1.162,1.162,0,0,0-.124.149c-.021.03-.035.069-.054.1a1.334,1.334,0,0,0-.089.173,2.1,2.1,0,0,0-.487.558l-.089.028a1.1,1.1,0,0,0-.492.246Zm37.99.294h0l-.194-.11h0l-.2-.112h0l-.753-.424-.017-.011h0l-.068-.038h0l-.212-.12-.064-.037h0l-.344-.194h0L190.915,1.1l-.227-.129h0l-.194-.11h0l-.435-.246h0l-.194-.11h0L189.671.4h0L188.1-.489l-.266-.15h0l-.194-.11h0L187.2-.994h0l-.194-.11h0l-.194-.11h0l-1.644-.929h0l-.194-.11h0l-.194-.11h0l-.435-.246h0l-.078-.044-.311-.177h0L182.4-3.7l-.284-.162h0l-.194-.11h0l-.436-.246h0l-.075-.042L181.1-4.44v0l-.946-.534-.033-.019c-.045-.058-.147-.083-.321-.121a1.824,1.824,0,0,1-.238-.063c-.036-.014-.052-.025-.058-.026a.106.106,0,0,1,.013-.016l.073-.071-.175-.1h0l-.348-.2h0l-.436-.246h0l-.176-.1-.058-.033h0l-.013-.007-.142-.08h0L176.6-6.98h0L176.559-7h0l-.349-.2h0l-.006,0a.268.268,0,0,0-.267,0l-.007,0h0l-.194.11h0l-.194.11h0l-1.644.929h0L173.808-6l-.066.037h0l-.039.023h0l-.194.11h0l-.534.3-.1.054h0l-.111.064-.044.024h0l-.04.023h0l-1.644.928h0l-.194.11h0l-.194.11h0l-.436.246h0l-.194.11h0l-.194.11h0l-1.644.929h0l-.194.11h0l-.111.064-.044.024h0l-.04.023h0l-.434.246h0l-.194.11h0l-.194.11h0l-1.645.929h0l-.194.11h0l-.194.11h0l-.435.246h0l-.194.11h0l-.194.11h0L162.47.4h0l-.194.11h0l-.194.11h0l-.436.246h0l-.194.11h0l-.194.11h0l-1.191.673-.295.166h0l-.1.054-.18.1h0l-.068.038h0l-.772.435h0l-.1.058h0l-.194.11h0l-1.325.748h0l-.3.17-.011-.015h0l-.04-.055-.049-.068-.023-.033h0l-.026-.036c-.126-.175-.291-.4-.427-.589l-.021-.029h0l-.148-.206,0-.005.558-.337.021-.018a1,1,0,0,1,.427-.206l.148-.048.015-.029a1.626,1.626,0,0,1,.283-.361,1.748,1.748,0,0,0-.034.34V2.02h.078c.4,0,.788-.368,1.159-.725s.71-.686.989-.567l.036.016,16.08-8.967h0l.109-.061.169-.094h0l.05-.028L196.035,2.768l-.63.869Zm-2.711,17.587.026-.033.065.05a.674.674,0,0,1,.069.061.21.21,0,0,1-.173-.023C191.146,20.41,191.135,20.4,191.164,20.361Z" transform="translate(0)" fill="#91733f"/>
      <path id="Path_6351" data-name="Path 6351" d="M173.643-2.439H172.2l-.072,0a2.076,2.076,0,0,0-1.234,0H166.97a.273.273,0,0,0-.272.273.273.273,0,0,0,.272.272h3.524a4.113,4.113,0,0,0,1.257.2,4.833,4.833,0,0,0,1.33-.2h.562a.273.273,0,0,0,.272-.272A.273.273,0,0,0,173.643-2.439Z" transform="translate(-23.974 -4.125)" fill="#91733f"/>
      <path id="Path_6352" data-name="Path 6352" d="M107.028-2.144a.273.273,0,0,0,.272.272h3.181a.563.563,0,0,0,.388.188,1.185,1.185,0,0,0,.178.012.972.972,0,0,0,.647-.2.305.305,0,0,0,.06-.014,4,4,0,0,0,1.585-.177c.048-.019.18-.071.159-.173-.007-.035-.016-.077-.148-.112l-.063-.014-.012,0a12.934,12.934,0,0,0-2.17-.051h-3.8A.273.273,0,0,0,107.028-2.144Z" transform="translate(-10.675 -4.147)" fill="#91733f"/>
      <path id="Path_6353" data-name="Path 6353" d="M218.3,24.377c.156-.141.35-.043.624.131l.09.056,0,0,.029.018h0a.777.777,0,0,0,.373.144.289.289,0,0,0,.124-.026c.134-.059.222-.221.28-.494l.016,0v-.356h-3.765V12.393l0-.124c-.124-.579-.084-.675-.071-.689a.481.481,0,0,1,.173.069c.19.1.5.257.734-.061h5.643c.4-.022.629.009.691.089.047.062,0,.192-.046.343a1.134,1.134,0,0,0,.1,1.147v1.313a12.144,12.144,0,0,1,0,1.9v1.105a22.816,22.816,0,0,1,0,2.609c0,.028,0,.057,0,.083v.661a16.658,16.658,0,0,1,0,2.212v.805h-1.818v0l-.014,0h-.1l-.02.046c-.212.466-.27.591-.185.67a.107.107,0,0,0,.081.032,1.441,1.441,0,0,0,.474-.2h2.126V11.045h-8.3V24.4h2.745Z" transform="translate(-34.858 -7.15)" fill="#91733f"/>
      <path id="Path_6354" data-name="Path 6354" d="M90.846,20.949v-9.9h-8.3V24.4h.549c.319.02,1.285.076,2.167.076.864,0,1.648-.054,1.667-.248.007-.075-.028-.155-.45-.228l.006,0-.232-.03-.026,0h0a18.757,18.757,0,0,0-2.019-.108l-.084,0h0c-.285,0-.588,0-.915,0h-.117V11.589H90.3v9.246a12.723,12.723,0,0,1,0,1.855v1.163H87.813c-.959-.749-1.047-.661-1.1-.607s-.068.159.354.659l-.007,0,.226.256c.058.065.116.131.19.212l.023.026h3.343v-1.99c0-.026,0-.051,0-.077l-.006-.028c-.329-.769-.329-.769,0-1.335Z" transform="translate(-5.218 -7.15)" fill="#91733f"/>
      <path id="Path_6355" data-name="Path 6355" d="M186.806,26.194V26.04h0V19.986h-7.953v4.689h.543V20.531h6.867v5.315H179.4v-.127h-.543v.476h0v.195h7.953Z" transform="translate(-26.683 -9.143)" fill="#91733f"/>
    </g>
    <g id="Group_626" data-name="Group 626" transform="translate(-13776.253 -13649.717)">
      <path id="Path_6267" data-name="Path 6267" d="M152.252,362.622H148.7l-1,2.355h-1.027l3.844-8.754,3.745,8.754H153.23Zm-.363-.876-1.4-3.344-1.428,3.344Z" transform="translate(-146.668 -356.198)" fill="#91733f"/>
      <path id="Path_6268" data-name="Path 6268" d="M162.512,357.626V365.1h-.927v-7.477h-2.028v-.876h4.984v.876Z" transform="translate(-149.747 -356.324)" fill="#91733f"/>
      <path id="Path_6269" data-name="Path 6269" d="M179.689,356.75a3.016,3.016,0,0,1,2.1.588,2.392,2.392,0,0,1-1.878,4.132H179.1V365.1h-.927V356.75Zm-.588,3.844h.763c1.1,0,1.767-.55,1.767-1.515,0-1.327-1.24-1.453-1.841-1.453H179.1Z" transform="translate(-154.194 -356.324)" fill="#91733f"/>
      <path id="Path_6270" data-name="Path 6270" d="M190.313,356.75a3.658,3.658,0,0,1,2.028.464,2.321,2.321,0,0,1-1.19,4.157l2.656,3.733H192.68l-2.542-3.656H189.9V365.1h-.927V356.75Zm-.413,3.87h.588c1.152,0,1.841-.551,1.841-1.528a1.3,1.3,0,0,0-.664-1.227,2.382,2.382,0,0,0-1.2-.238H189.9Z" transform="translate(-156.773 -356.324)" fill="#91733f"/>
      <path id="Path_6271" data-name="Path 6271" d="M204.862,357.626h-3.405v2.48h3.306v.877h-3.306v3.243h3.405v.877H200.53V356.75h4.332Z" transform="translate(-159.534 -356.324)" fill="#91733f"/>
      <path id="Path_6272" data-name="Path 6272" d="M215.346,358.359a1.981,1.981,0,0,0-.488-.626,1.5,1.5,0,0,0-.939-.288,1.282,1.282,0,0,0-1.4,1.29.877.877,0,0,0,.313.727,2.731,2.731,0,0,0,.876.525l.8.351a4.036,4.036,0,0,1,1.289.789,2.01,2.01,0,0,1,.6,1.515,2.68,2.68,0,0,1-4.458,1.891,3.023,3.023,0,0,1-.777-1.477l.9-.25a1.965,1.965,0,0,0,.5,1.065,1.711,1.711,0,0,0,2.881-1.19,1.247,1.247,0,0,0-.414-.977,3.626,3.626,0,0,0-1-.576l-.752-.35a3.709,3.709,0,0,1-1.114-.689,1.736,1.736,0,0,1-.576-1.365,2.158,2.158,0,0,1,2.341-2.153,2.267,2.267,0,0,1,1.341.375,2.543,2.543,0,0,1,.814.927Z" transform="translate(-162.074 -356.281)" fill="#91733f"/>
      <path id="Path_6273" data-name="Path 6273" d="M224.656,357.626V365.1h-.927v-7.477H221.7v-.876h4.984v.876Z" transform="translate(-164.591 -356.324)" fill="#91733f"/>
      <path id="Path_6274" data-name="Path 6274" d="M232.933,356.616l2.205,6.261,2.616-6.687,2.48,6.687,2.442-6.261H243.7l-3.507,8.791-2.455-6.688-2.63,6.688-3.206-8.791Z" transform="translate(-167.028 -356.19)" fill="#91733f"/>
      <path id="Path_6275" data-name="Path 6275" d="M250.289,360.889a4.346,4.346,0,1,1,4.346,4.32A4.264,4.264,0,0,1,250.289,360.889Zm.952,0a3.394,3.394,0,1,0,3.394-3.444A3.407,3.407,0,0,0,251.241,360.889Z" transform="translate(-171.419 -356.281)" fill="#91733f"/>
      <path id="Path_6276" data-name="Path 6276" d="M268.172,356.75v7.476h2.3v.877h-3.232V356.75Z" transform="translate(-175.47 -356.324)" fill="#91733f"/>
      <path id="Path_6277" data-name="Path 6277" d="M276.43,356.75h1.7a4.544,4.544,0,0,1,3.081.977,4.072,4.072,0,0,1,1.427,3.206,3.977,3.977,0,0,1-1.465,3.206,4.183,4.183,0,0,1-3.056.964h-1.69Zm.927,7.476h.814a3.57,3.57,0,0,0,2.392-.751,3.348,3.348,0,0,0-2.392-5.849h-.814Z" transform="translate(-177.664 -356.324)" fill="#91733f"/>
    </g>
    <g id="Group_628" data-name="Group 628" transform="translate(-13846.086 -13674.214)">
      <path id="Path_6294" data-name="Path 6294" d="M58.191,339.246c2.1,0,2.306-.431,2.306-2.966V325.507h-2.1c-2.255,0-2.56.557-2.889,1.85l-.127.507H54.92l.228-3.3h12.7l.228,3.3H67.62l-.127-.507c-.329-1.293-.633-1.85-2.89-1.85H62.5V336.28c0,2.535.2,2.966,2.307,2.966v.533H58.191Z" transform="translate(-54.92 -324.139)" fill="#91733f"/>
      <path id="Path_6295" data-name="Path 6295" d="M79.663,339.246c2.1,0,2.281-.431,2.281-2.966v-8.238c0-2.535-.177-2.94-2.281-2.94v-.533h6.566v.533c-2.1,0-2.282.406-2.282,2.94v3.194h7.376v-3.194c0-2.535-.2-2.94-2.307-2.94v-.533h6.617v.533c-2.129,0-2.306.406-2.306,2.94v8.238c0,2.535.177,2.966,2.306,2.966v.533H89.016v-.533c2.1,0,2.307-.431,2.307-2.966v-4.106H83.947v4.106c0,2.535.177,2.966,2.282,2.966v.533H79.663Z" transform="translate(-60.83 -324.139)" fill="#91733f"/>
      <path id="Path_6296" data-name="Path 6296" d="M109.234,339.246c2.1,0,2.282-.431,2.282-2.966v-8.238c0-2.535-.179-2.94-2.282-2.94v-.533H119.7l.228,3.321h-.481l-.126-.507c-.33-1.267-.608-1.875-2.865-1.875h-2.94v5.754h1.014c2.535,0,2.815-.127,2.815-2.256h.532v5.45h-.532c0-2.13-.28-2.256-2.815-2.256h-1.014v3.752c0,2.535.177,2.889,2.281,2.889h1.5c2.257,0,2.535-.633,2.865-1.926l.127-.507h.482l-.2,3.372H109.234Z" transform="translate(-67.894 -324.139)" fill="#91733f"/>
      <path id="Path_6297" data-name="Path 6297" d="M146.164,339.246c2.1,0,2.281-.431,2.281-2.966v-8.238c0-2.535-.177-2.94-2.281-2.94v-.533h6.566v.533c-2.1,0-2.281.406-2.281,2.94v3.194h7.376v-3.194c0-2.535-.2-2.94-2.307-2.94v-.533h6.616v.533c-2.129,0-2.306.406-2.306,2.94v8.238c0,2.535.177,2.966,2.306,2.966v.533h-6.616v-.533c2.1,0,2.307-.431,2.307-2.966v-4.106h-7.376v4.106c0,2.535.177,2.966,2.281,2.966v.533h-6.566Z" transform="translate(-76.715 -324.139)" fill="#91733f"/>
      <path id="Path_6298" data-name="Path 6298" d="M177.091,337.256c-.559,1.419-.254,1.926,1.85,1.926v.533h-5.7v-.533c1.85,0,2.179-.381,2.89-2.2l4.918-12.674h.582l4.944,12.674c.709,1.85.988,2.2,2.838,2.2v.533h-6.792v-.533c2.1,0,2.382-.507,1.85-1.926l-1.066-2.788h-5.247Zm3.726-9.708-2.282,6.008h4.512Z" transform="translate(-83.182 -324.075)" fill="#91733f"/>
      <path id="Path_6299" data-name="Path 6299" d="M200.543,339.246c2.1,0,2.282-.431,2.282-2.966v-8.238c0-2.535-.177-2.94-2.282-2.94v-.533h6.566v.533c-2.1,0-2.281.406-2.281,2.94V335.9c0,2.535.177,2.94,2.281,2.94h1.7c2.231,0,2.46-.659,2.789-1.926l.126-.507h.456l-.2,3.372H200.543Z" transform="translate(-89.704 -324.139)" fill="#91733f"/>
      <path id="Path_6300" data-name="Path 6300" d="M223.855,339.246c2.1,0,2.281-.431,2.281-2.966v-8.238c0-2.535-.178-2.94-2.281-2.94v-.533h6.565v.533c-2.1,0-2.282.406-2.282,2.94V335.9c0,2.535.178,2.94,2.282,2.94h1.7c2.231,0,2.459-.659,2.789-1.926l.126-.507h.457l-.2,3.372H223.855Z" transform="translate(-95.273 -324.139)" fill="#91733f"/>
      <path id="Path_6301" data-name="Path 6301" d="M260.218,339.246c2.1,0,2.282-.431,2.282-2.966v-8.238c0-2.535-.178-2.94-2.282-2.94v-.533h5.906c3.219,0,4.892,1.7,4.892,3.8a3.717,3.717,0,0,1-1.977,3.144,4.177,4.177,0,0,1,3.118,4.005c0,2.357-1.8,4.259-5.323,4.259h-6.617Zm5.906-8.01a2.625,2.625,0,0,0,2.788-2.864c0-1.572-.76-2.915-2.661-2.915H264.5v5.779Zm.811,7.656c2.206,0,3.118-1.547,3.118-3.371,0-1.851-.912-3.4-3.118-3.4H264.5v3.828c0,2.535.177,2.94,2.281,2.94Z" transform="translate(-103.958 -324.139)" fill="#91733f"/>
      <path id="Path_6302" data-name="Path 6302" d="M286.016,337.256c-.558,1.419-.254,1.926,1.85,1.926v.533h-5.7v-.533c1.85,0,2.18-.381,2.889-2.2L289.97,324.3h.584l4.942,12.674c.71,1.85.99,2.2,2.84,2.2v.533h-6.794v-.533c2.1,0,2.382-.507,1.85-1.926l-1.064-2.788H287.08Zm3.726-9.708-2.282,6.008h4.513Z" transform="translate(-109.2 -324.075)" fill="#91733f"/>
      <path id="Path_6303" data-name="Path 6303" d="M309.47,339.246c2.1,0,2.282-.431,2.282-2.966v-8.238c0-2.535-.179-2.94-2.282-2.94v-.533H315.5c3.523,0,5.323,1.926,5.323,4.284,0,2.205-1.648,3.954-4.512,4.259l2.484,2.915c1.521,1.774,3.067,3.042,4.589,3.219v.533h-3.9l-5.02-6.667h-.709v3.168c0,2.535.177,2.966,2.281,2.966v.533H309.47Zm6.008-7.021a3.374,3.374,0,0,0,0-6.743h-1.724v6.743Z" transform="translate(-115.723 -324.139)" fill="#91733f"/>
      <path id="Path_6304" data-name="Path 6304" d="M338.3,327.941v8.339c0,2.535.2,2.966,2.305,2.966v.533h-5.627v-.533c2.1,0,2.282-.431,2.282-2.966v-8.238c0-2.535-.177-2.94-2.282-2.94v-.533H338.3l8.466,11.458v-7.985c0-2.535-.177-2.94-2.281-2.94v-.533h5.627v.533c-2.1,0-2.306.406-2.306,2.94v12.04h-.534Z" transform="translate(-121.816 -324.139)" fill="#91733f"/>
      <path id="Path_6305" data-name="Path 6305" d="M363.783,334.549h.508c.126,1.47,1.014,4.486,4.46,4.486a2.681,2.681,0,0,0,2.966-2.636c0-1.419-1.114-2.358-2.839-3.245l-2.18-1.09a4.5,4.5,0,0,1-2.712-4.157,3.89,3.89,0,0,1,3.979-3.9,4.415,4.415,0,0,1,2.89,1.064,2.423,2.423,0,0,0,.735-1.064h.456V328.9h-.507c-.177-2.028-1.267-3.853-3.65-3.853a2.214,2.214,0,0,0-2.281,2.231c0,1.318.734,2.028,2.94,3.168l2.154,1.09a4.494,4.494,0,0,1,2.637,3.98,4.385,4.385,0,0,1-4.589,4.563A6.448,6.448,0,0,1,365,338.832a2.516,2.516,0,0,0-.761,1.115h-.456Z" transform="translate(-128.696 -324.004)" fill="#91733f"/>
    </g>
  </g>
</svg>
